<svg width="22" height="22" viewBox="0 0 22 22" fill="none" xmlns="http://www.w3.org/2000/svg">
<path d="M19.238 17.4107C19.1956 17.3424 19.1401 17.2831 19.0747 17.2363C19.0093 17.1895 18.9353 17.156 18.857 17.1379C18.7786 17.1197 18.6975 17.1172 18.6181 17.1304C18.5388 17.1437 18.4629 17.1725 18.3947 17.2152C17.4641 17.7945 16.4155 18.1579 15.326 18.2786C14.2364 18.3992 13.1337 18.2741 12.0989 17.9123C11.0641 17.5506 10.1236 16.9615 9.3465 16.1883C8.56941 15.4151 7.97555 14.4776 7.6086 13.4446H14.7647C14.9268 13.4446 15.0822 13.3802 15.1968 13.2656C15.3114 13.151 15.3758 12.9956 15.3758 12.8335C15.3758 12.6714 15.3114 12.516 15.1968 12.4014C15.0822 12.2868 14.9268 12.2224 14.7647 12.2224H7.29082C7.14361 11.4142 7.14361 10.5861 7.29082 9.77795H14.7647C14.9268 9.77795 15.0822 9.71356 15.1968 9.59896C15.3114 9.48435 15.3758 9.32891 15.3758 9.16684C15.3758 9.00476 15.3114 8.84932 15.1968 8.73471C15.0822 8.62011 14.9268 8.55572 14.7647 8.55572H7.6086C7.9744 7.52478 8.56621 6.58874 9.34066 5.81617C10.1151 5.0436 11.0526 4.45408 12.0844 4.0908C13.1163 3.72752 14.2163 3.59969 15.3039 3.71666C16.3916 3.83364 17.4393 4.19246 18.3703 4.76684C18.508 4.85274 18.6743 4.88039 18.8324 4.84372C18.9906 4.80704 19.1277 4.70905 19.2136 4.57128C19.2995 4.43352 19.3272 4.26727 19.2905 4.10911C19.2538 3.95096 19.1558 3.81385 19.018 3.72795C17.9008 3.03678 16.6394 2.61219 15.3316 2.48711C14.0238 2.36203 12.7047 2.53981 11.4767 3.00667C10.2487 3.47353 9.14467 4.21692 8.25026 5.17923C7.35585 6.14153 6.69508 7.29689 6.31916 8.55572H2.1636C2.00152 8.55572 1.84609 8.62011 1.73148 8.73471C1.61687 8.84932 1.55249 9.00476 1.55249 9.16684C1.55249 9.32891 1.61687 9.48435 1.73148 9.59896C1.84609 9.71356 2.00152 9.77795 2.1636 9.77795H6.05638C5.9946 10.1825 5.96192 10.5909 5.9586 11.0002C5.96192 11.4094 5.9946 11.8178 6.05638 12.2224H2.1636C2.00152 12.2224 1.84609 12.2868 1.73148 12.4014C1.61687 12.516 1.55249 12.6714 1.55249 12.8335C1.55249 12.9956 1.61687 13.151 1.73148 13.2656C1.84609 13.3802 2.00152 13.4446 2.1636 13.4446H6.31916C6.69587 14.7064 7.35877 15.8642 8.25622 16.8279C9.15368 17.7916 10.2615 18.535 11.4933 19.0005C12.7252 19.4659 14.0478 19.6407 15.3583 19.5112C16.6687 19.3817 17.9316 18.9515 19.0486 18.2541C19.1164 18.2111 19.1751 18.1553 19.2213 18.0896C19.2676 18.024 19.3004 17.9499 19.318 17.8716C19.3356 17.7933 19.3376 17.7123 19.3239 17.6332C19.3102 17.5541 19.281 17.4785 19.238 17.4107Z" fill="black"/>
</svg>
