<svg width="15" height="18" viewBox="0 0 15 18" fill="none" xmlns="http://www.w3.org/2000/svg">
<path d="M7.3125 0C11.3513 0 14.625 3.27375 14.625 7.3125C14.625 10.4025 12.4538 13.77 8.1675 17.451C7.92917 17.6557 7.62529 17.7682 7.3111 17.7679C6.9969 17.7676 6.69322 17.6547 6.45525 17.4495L6.17175 17.2035C2.07525 13.6185 0 10.3335 0 7.3125C0 3.27375 3.27375 0 7.3125 0ZM7.3125 1.125C5.67147 1.125 4.09766 1.7769 2.93728 2.93728C1.7769 4.09766 1.125 5.67147 1.125 7.3125C1.125 9.939 3.036 12.9653 6.9105 16.3553L7.19025 16.5975C7.22426 16.6268 7.26764 16.6428 7.3125 16.6428C7.35736 16.6428 7.40074 16.6268 7.43475 16.5975C11.4967 13.1085 13.5 10.0013 13.5 7.3125C13.5 6.49995 13.34 5.69535 13.029 4.94465C12.7181 4.19394 12.2623 3.51184 11.6877 2.93728C11.1132 2.36271 10.4311 1.90695 9.68035 1.596C8.92965 1.28504 8.12505 1.125 7.3125 1.125V1.125ZM7.3125 4.5C8.05842 4.5 8.77379 4.79632 9.30124 5.32376C9.82868 5.85121 10.125 6.56658 10.125 7.3125C10.125 8.05842 9.82868 8.77379 9.30124 9.30124C8.77379 9.82868 8.05842 10.125 7.3125 10.125C6.56658 10.125 5.85121 9.82868 5.32376 9.30124C4.79632 8.77379 4.5 8.05842 4.5 7.3125C4.5 6.56658 4.79632 5.85121 5.32376 5.32376C5.85121 4.79632 6.56658 4.5 7.3125 4.5V4.5ZM7.3125 5.625C6.86495 5.625 6.43573 5.80279 6.11926 6.11926C5.80279 6.43573 5.625 6.86495 5.625 7.3125C5.625 7.76005 5.80279 8.18928 6.11926 8.50574C6.43573 8.82221 6.86495 9 7.3125 9C7.76005 9 8.18927 8.82221 8.50574 8.50574C8.82221 8.18928 9 7.76005 9 7.3125C9 6.86495 8.82221 6.43573 8.50574 6.11926C8.18927 5.80279 7.76005 5.625 7.3125 5.625V5.625Z" fill="black"/>
</svg>
