<svg width="22" height="22" viewBox="0 0 22 22" fill="none" xmlns="http://www.w3.org/2000/svg">
<path d="M19.2014 7.61276C19.1922 6.91849 19.0622 6.23113 18.8173 5.58142C18.605 5.03339 18.2807 4.53569 17.8651 4.1201C17.4495 3.70451 16.9518 3.38019 16.4038 3.16784C15.7624 2.92708 15.0848 2.7969 14.3999 2.78284C13.5181 2.74342 13.2385 2.73242 11 2.73242C8.7615 2.73242 8.47459 2.73242 7.59917 2.78284C6.91457 2.797 6.23732 2.92718 5.59625 3.16784C5.04814 3.38004 4.55036 3.70431 4.13475 4.11992C3.71914 4.53552 3.39487 5.03331 3.18267 5.58142C2.94143 6.22229 2.81153 6.89969 2.79859 7.58434C2.75917 8.46709 2.74725 8.74667 2.74725 10.9852C2.74725 13.2237 2.74725 13.5097 2.79859 14.386C2.81234 15.0717 2.94159 15.7482 3.18267 16.3908C3.39522 16.9387 3.71974 17.4363 4.13549 17.8517C4.55123 18.2671 5.04906 18.5913 5.59717 18.8034C6.23648 19.0539 6.91384 19.1934 7.60009 19.2159C8.48284 19.2553 8.76242 19.2673 11.0009 19.2673C13.2394 19.2673 13.5263 19.2673 14.4018 19.2159C15.0866 19.2024 15.7642 19.0726 16.4056 18.8318C16.9535 18.6192 17.4511 18.2948 17.8666 17.8793C18.2822 17.4637 18.6066 16.9661 18.8192 16.4183C19.0603 15.7766 19.1895 15.1001 19.2033 14.4135C19.2427 13.5317 19.2546 13.2521 19.2546 11.0127C19.2528 8.77417 19.2528 8.49001 19.2014 7.61276ZM10.9945 15.2183C8.65334 15.2183 6.75675 13.3218 6.75675 10.9806C6.75675 8.63942 8.65334 6.74284 10.9945 6.74284C12.1184 6.74284 13.1963 7.18931 13.991 7.98405C14.7858 8.77878 15.2323 9.85667 15.2323 10.9806C15.2323 12.1045 14.7858 13.1824 13.991 13.9771C13.1963 14.7719 12.1184 15.2183 10.9945 15.2183ZM15.4009 7.57425C15.2711 7.57438 15.1426 7.5489 15.0226 7.49928C14.9027 7.44966 14.7937 7.37688 14.7019 7.2851C14.6101 7.19331 14.5373 7.08433 14.4877 6.96439C14.4381 6.84444 14.4126 6.71589 14.4128 6.58609C14.4128 6.45638 14.4383 6.32794 14.4879 6.20811C14.5376 6.08827 14.6103 5.97939 14.702 5.88767C14.7938 5.79596 14.9026 5.7232 15.0225 5.67357C15.1423 5.62393 15.2708 5.59838 15.4005 5.59838C15.5302 5.59838 15.6586 5.62393 15.7784 5.67357C15.8983 5.7232 16.0072 5.79596 16.0989 5.88767C16.1906 5.97939 16.2633 6.08827 16.313 6.20811C16.3626 6.32794 16.3882 6.45638 16.3882 6.58609C16.3882 7.13242 15.9463 7.57425 15.4009 7.57425Z" fill="#DA1F39"/>
<path d="M10.9945 13.7335C12.5148 13.7335 13.7473 12.5011 13.7473 10.9808C13.7473 9.46048 12.5148 8.22803 10.9945 8.22803C9.47421 8.22803 8.24176 9.46048 8.24176 10.9808C8.24176 12.5011 9.47421 13.7335 10.9945 13.7335Z" fill="#DA1F39"/>
</svg>
